<svg width="175" height="159" viewBox="0 0 175 159" fill="none" xmlns="http://www.w3.org/2000/svg">
<g clip-path="url(#clip0_1150_7690)">
<path d="M159.939 10.7285C142.47 -5.42629 114.292 -1.08496 102.861 19.741C97.2275 30.006 87.0918 40.3844 68.8648 44.9989C26.8998 55.6249 -9.53392 74.2414 5.13815 124.795C23.0124 186.38 108.476 147.253 133.916 118.174C159.356 89.0939 190.233 41.6359 163.302 14.0069C162.18 12.8549 161.058 11.7627 159.939 10.7285Z" stroke="#DDD389" stroke-miterlimit="10"/>
<path d="M146.827 24.8043C132.715 11.7364 109.976 15.2217 100.766 32.0408C96.2278 40.3308 88.0555 48.7088 73.348 52.4228C39.4861 60.9752 10.095 75.9887 21.9778 116.85C36.4541 166.628 105.401 135.081 125.911 111.604C146.42 88.1266 171.303 49.8033 149.544 27.4561C148.638 26.5244 147.731 25.6409 146.827 24.8043Z" stroke="#DDD389" stroke-miterlimit="10"/>
<path d="M131.349 41.7064C121.298 32.435 105.051 34.9632 98.4392 46.9531C95.1807 52.8629 89.3269 58.8429 78.8158 61.517C54.6155 67.6749 33.5945 78.422 41.9952 107.479C52.2292 142.878 101.534 120.28 116.23 103.528C130.926 86.7758 148.776 59.4478 133.284 43.5881C132.638 42.9268 131.992 42.2999 131.349 41.7064Z" stroke="#DDD389" stroke-miterlimit="10"/>
<path d="M114.184 60.2915C108.583 55.1503 99.4958 56.5905 95.7752 63.2788C93.9416 66.5755 90.6571 69.9165 84.7755 71.4264C71.234 74.9034 59.4606 80.9288 64.0984 97.0887C69.7484 116.775 97.3573 104.095 105.607 94.7394C113.856 85.3834 123.89 70.1334 115.262 61.3352C114.902 60.9684 114.542 60.6207 114.184 60.2915Z" stroke="#DDD389" stroke-miterlimit="10"/>
</g>
<defs>
<clipPath id="clip0_1150_7690">
<rect width="175" height="159" fill="white"/>
</clipPath>
</defs>
</svg>
