<svg width="119" height="111" viewBox="0 0 119 111" fill="none" xmlns="http://www.w3.org/2000/svg">
<path opacity="0.4" d="M6.19602 25.0646C15.1564 8.77867 33.4436 5.18469 43.2663 17.9479C48.1072 24.239 55.797 29.523 67.8538 28.5456C95.6133 26.2967 120.898 31.3493 118.035 72.6165C114.548 122.889 55.81 114.425 36.1271 98.9021C16.4442 83.379 -8.97898 55.4651 4.49198 28.3256C5.05325 27.1942 5.62194 26.1074 6.19602 25.0646Z" fill="#FFEA86"/>
<path d="M89.8828 21.0014C89.8828 21.5695 90.1085 22.1144 90.5102 22.5161C90.9119 22.9178 91.4568 23.1435 92.0249 23.1435H96.823C97.3911 23.1435 97.936 22.9178 98.3377 22.5161C98.7394 22.1144 98.9651 21.5695 98.9651 21.0014C98.9651 20.4333 98.7394 19.8885 98.3377 19.4868C97.936 19.0851 97.3911 18.8594 96.823 18.8594H92.0249C91.4568 18.8594 90.9119 19.0851 90.5102 19.4868C90.1085 19.8885 89.8828 20.4333 89.8828 21.0014Z" fill="#93851E"/>
<path d="M56.9609 21.0014C56.9609 21.5695 57.1866 22.1144 57.5883 22.5161C57.99 22.9178 58.5349 23.1435 59.103 23.1435H63.9012C64.4693 23.1435 65.0141 22.9178 65.4158 22.5161C65.8175 22.1144 66.0432 21.5695 66.0432 21.0014C66.0432 20.4333 65.8175 19.8885 65.4158 19.4868C65.0141 19.0851 64.4693 18.8594 63.9012 18.8594H59.103C58.5349 18.8594 57.99 19.0851 57.5883 19.4868C57.1866 19.8885 56.9609 20.4333 56.9609 21.0014Z" fill="#93851E"/>
<path d="M80.1122 6.94022V2.14204C80.1122 1.57394 79.8865 1.0291 79.4848 0.62739C79.0831 0.225679 78.5383 0 77.9702 0C77.4021 0 76.8572 0.225679 76.4555 0.62739C76.0538 1.0291 75.8281 1.57394 75.8281 2.14204V6.94022C75.8281 7.50833 76.0538 8.05317 76.4555 8.45488C76.8572 8.85659 77.4021 9.08227 77.9702 9.08227C78.5383 9.08227 79.0831 8.85659 79.4848 8.45488C79.8865 8.05317 80.1122 7.50833 80.1122 6.94022Z" fill="#93851E"/>
<path d="M89.8211 6.15162L86.3938 9.57889C85.9916 9.98111 85.7656 10.5266 85.7656 11.0955C85.7656 11.6643 85.9916 12.2098 86.3938 12.612C86.796 13.0142 87.3415 13.2402 87.9104 13.2402C88.4792 13.2402 89.0247 13.0142 89.4269 12.612L92.8542 9.18476C93.2564 8.78254 93.4824 8.23701 93.4824 7.66819C93.4824 7.09936 93.2564 6.55384 92.8542 6.15162C92.452 5.7494 91.9065 5.52344 91.3376 5.52344C90.7688 5.52344 90.2233 5.7494 89.8211 6.15162Z" fill="#93851E"/>
<path d="M68.033 13.1984C68.4572 13.1992 68.8721 13.074 69.225 12.8387C69.578 12.6033 69.8531 12.2685 70.0156 11.8766C70.178 11.4848 70.2204 11.0535 70.1375 10.6375C70.0545 10.2214 69.8499 9.83941 69.5495 9.53983L66.1223 6.11256C65.9231 5.9134 65.6867 5.75542 65.4264 5.64763C65.1662 5.53985 64.8873 5.48438 64.6057 5.48438C64.324 5.48437 64.0451 5.53985 63.7849 5.64763C63.5247 5.75542 63.2883 5.9134 63.0891 6.11256C62.89 6.31172 62.732 6.54815 62.6242 6.80836C62.5164 7.06858 62.4609 7.34747 62.4609 7.62912C62.4609 7.91078 62.5164 8.18967 62.6242 8.44989C62.732 8.7101 62.89 8.94653 63.0891 9.14569L66.5164 12.573C66.7154 12.7721 66.9519 12.9299 67.2122 13.0373C67.4724 13.1446 67.7514 13.1994 68.033 13.1984Z" fill="#93851E"/>
<path d="M42.2841 37.9049C41.1479 37.9049 40.0582 38.3562 39.2548 39.1597C38.4514 39.9631 38 41.0528 38 42.189V79.6833C38 80.8195 38.4514 81.9092 39.2548 82.7126C40.0582 83.516 41.1479 83.9674 42.2841 83.9674H54.6908C55.7769 83.9701 56.8235 83.5601 57.6188 82.8204C58.4142 82.0808 58.8989 81.0666 58.9749 79.9832L61.631 81.5769C64.1596 83.0948 67.053 83.8974 70.0021 83.8988H88.1067C90.2965 83.9223 92.4673 83.4904 94.4814 82.6308C100.265 80.0603 101.173 75.5449 100.745 72.546C102.229 71.2991 103.294 69.6247 103.792 67.751C104.29 65.8772 104.199 63.8954 103.529 62.0757C104.963 60.3411 105.724 58.1479 105.671 55.898C105.578 54.1356 104.967 52.4399 103.915 51.0228C104.572 49.5095 104.736 47.8279 104.384 46.2162C104.032 44.6045 103.181 43.1446 101.953 42.0433C101.776 41.8777 101.59 41.7206 101.396 41.5721C100.421 40.8474 99.2973 40.3498 98.1058 40.1155H98.0115C92.3308 38.9074 88.5094 38.8302 82.8887 38.8302C82.6745 37.5364 82.683 34.8203 84.3795 29.7051C85.9475 24.9669 85.8104 21.0513 83.9683 18.061C83.2085 16.8654 82.1954 15.8513 81.0006 15.0903C79.8058 14.3293 78.4584 13.84 77.0537 13.6569H76.7881C75.8045 13.6398 74.842 13.9432 74.046 14.5213C73.25 15.0994 72.6636 15.9208 72.3755 16.8614C72.3452 16.9624 72.3223 17.0655 72.307 17.1699L71.6644 21.7967C71.4708 23.1866 71.0663 24.5388 70.4648 25.8066L64.2186 38.9245C63.7513 40.0062 63.0312 40.9599 62.1187 41.7054C61.2062 42.4509 60.128 42.9664 58.9749 43.2086V42.189C58.9749 41.0528 58.5235 39.9631 57.7201 39.1597C56.9167 38.3562 55.827 37.9049 54.6908 37.9049H42.2841ZM42.2841 79.6833V42.189H54.6908V79.6833H42.2841ZM59.4204 47.5184C61.3191 47.1854 63.1047 46.3842 64.6157 45.1873C66.1267 43.9905 67.3154 42.4358 68.0743 40.6638L74.2691 27.5802C75.0567 25.9167 75.5855 24.1426 75.8371 22.3194L76.4968 17.9924C76.5277 17.9625 76.5662 17.9417 76.6082 17.9325C77.3555 18.0509 78.07 18.3239 78.7058 18.734C79.3417 19.1442 79.885 19.6824 80.3011 20.3144C81.4321 22.148 81.4321 24.9327 80.3011 28.3599C78.6389 33.3637 78.1248 37.3137 78.7588 40.1069C78.9541 40.968 79.4378 41.7365 80.1297 42.285C80.8216 42.8335 81.6802 43.1291 82.5631 43.1229C88.2267 43.1229 91.7225 43.1743 97.129 44.3139H97.2147C97.7858 44.4172 98.3271 44.6454 98.7998 44.9822L99.074 45.2135C101.267 47.1928 99.8794 49.729 99.5881 50.2002C99.3141 50.6288 99.2016 51.1408 99.2707 51.6447C99.3398 52.1487 99.5859 52.6116 99.965 52.9506C100.799 53.7947 101.311 54.9042 101.413 56.0865C101.388 56.8758 101.204 57.652 100.873 58.3689C100.542 59.0857 100.07 59.7286 99.4852 60.2593C99.1645 60.5984 98.9632 61.033 98.9122 61.497C98.8612 61.961 98.9631 62.429 99.2025 62.8297C99.2967 62.9925 101.499 66.8225 97.1376 70.027C96.7722 70.3019 96.5027 70.685 96.3673 71.1218C96.232 71.5586 96.2376 72.0269 96.3836 72.4603C96.6149 73.1458 97.5231 76.6587 92.8192 78.7237C91.3279 79.3469 89.7226 79.6505 88.1067 79.6148H69.9679C67.7971 79.6115 65.668 79.0192 63.8073 77.9011L58.9749 75.0051V47.5869L59.4204 47.5184Z" fill="#93851E"/>
<path d="M48.4883 75.6328C49.9316 75.6328 51.1016 74.4628 51.1016 73.0195C51.1016 71.5763 49.9316 70.4062 48.4883 70.4062C47.045 70.4062 45.875 71.5763 45.875 73.0195C45.875 74.4628 47.045 75.6328 48.4883 75.6328Z" fill="#93851E"/>
</svg>
