<svg width="308" height="325" viewBox="0 0 308 325" fill="none" xmlns="http://www.w3.org/2000/svg">
<g opacity="0.5">
<mask id="mask0_1955_8332" style="mask-type:luminance" maskUnits="userSpaceOnUse" x="0" y="0" width="308" height="325">
<path d="M6.26447 262.109C13.9958 283.407 29.0207 298.286 46.2338 308.351C95.8308 337.818 159.432 325.273 197.213 281.656C204.069 273.779 210.341 265.173 215.447 255.983C240.246 211.491 209.029 152.558 275.109 129.365C341.19 106.171 305.743 -31.9716 170.372 6.83078C35.0016 45.6331 -19.701 190.923 6.26447 262.109Z" fill="white"/>
</mask>
<g mask="url(#mask0_1955_8332)">
<path d="M20.9954 5.37857C24.4964 2.89872 25.8093 -2.64447 25.2258 -2.93622C24.4964 -3.22796 15.744 -6.58305 14.1394 -2.93622C14.1394 -2.93622 10.6384 3.62809 11.6595 5.37857C12.6806 7.12905 17.4945 7.85842 20.9954 5.37857Z" fill="#DDD389"/>
<path d="M72.9321 -4.3953C70.8899 -5.12467 64.9091 -6.87515 63.3045 -2.93656C63.3045 -2.93656 64.9091 7.85807 67.6807 7.1287C70.4523 6.39933 73.2238 4.79472 72.9321 1.5855C72.4945 -1.62372 74.9743 -3.8118 72.9321 -4.3953Z" fill="#DDD389"/>
<path d="M39.659 6.82736C41.9929 7.41085 44.6187 6.38974 46.3691 4.63925C47.9737 2.7429 48.7031 0.263054 48.7031 -2.2168C48.7031 -2.65442 48.7031 -3.09205 48.4114 -3.52967C48.1196 -3.82142 47.8278 -3.96728 47.3902 -4.11316C45.6397 -4.69665 43.5975 -5.13428 41.7012 -4.98841C41.2636 -4.98841 40.8259 -4.84254 40.3883 -4.69666C37.1791 -3.67555 34.5534 -0.612202 35.7203 3.03464C36.158 4.78512 37.7626 6.24386 39.659 6.82736Z" fill="#DDD389"/>
<path d="M101.808 5.37857C105.309 2.89872 106.622 -2.64447 106.038 -2.93622C105.309 -3.22796 96.5565 -6.58305 94.9519 -2.93622C94.9519 -2.93622 91.4509 3.62809 92.472 5.37857C93.4932 7.12905 98.307 7.85842 101.808 5.37857Z" fill="#DDD389"/>
<path d="M153.745 -4.3953C151.702 -5.12467 145.722 -6.87515 144.117 -2.93656C144.117 -2.93656 145.722 7.85807 148.493 7.1287C151.265 6.39933 154.036 4.79472 153.745 1.5855C153.307 -1.62372 155.787 -3.8118 153.745 -4.3953Z" fill="#DDD389"/>
<path d="M120.339 6.82736C122.673 7.41085 125.298 6.38974 127.049 4.63925C128.653 2.7429 129.383 0.263054 129.383 -2.2168C129.383 -2.65442 129.383 -3.09205 129.091 -3.52967C128.799 -3.82142 128.508 -3.96728 128.07 -4.11316C126.319 -4.69665 124.277 -5.13428 122.381 -4.98841C121.943 -4.98841 121.506 -4.84254 121.068 -4.69666C117.859 -3.67555 115.233 -0.612202 116.4 3.03464C116.984 4.78512 118.588 6.24386 120.339 6.82736Z" fill="#DDD389"/>
<path d="M182.488 5.37857C185.989 2.89872 187.301 -2.64447 186.718 -2.93622C185.989 -3.22796 177.236 -6.58305 175.632 -2.93622C175.632 -2.93622 172.131 3.62809 173.152 5.37857C174.173 7.12905 178.987 7.85842 182.488 5.37857Z" fill="#DDD389"/>
<path d="M234.415 -4.3953C232.372 -5.12467 226.392 -6.87515 224.787 -2.93656C224.787 -2.93656 226.392 7.85807 229.163 7.1287C231.935 6.39933 234.706 4.79472 234.415 1.5855C233.977 -1.62372 236.603 -3.8118 234.415 -4.3953Z" fill="#DDD389"/>
<path d="M201.151 6.82736C203.485 7.41085 206.111 6.38974 207.861 4.63925C209.466 2.7429 210.195 0.263054 210.195 -2.2168C210.195 -2.65442 210.195 -3.09205 209.904 -3.52967C209.612 -3.82142 209.32 -3.96728 208.882 -4.11316C207.132 -4.69665 205.09 -5.13428 203.193 -4.98841C202.756 -4.98841 202.318 -4.84254 201.881 -4.69666C198.671 -3.67555 196.046 -0.612202 197.213 3.03464C197.796 4.78512 199.255 6.24386 201.151 6.82736Z" fill="#DDD389"/>
<path d="M263.285 5.37857C266.785 2.89872 268.098 -2.64447 267.515 -2.93622C266.785 -3.22796 258.033 -6.58305 256.428 -2.93622C256.428 -2.93622 252.927 3.62809 253.949 5.37857C254.97 7.12905 259.784 7.85842 263.285 5.37857Z" fill="#DDD389"/>
<path d="M315.229 -4.3953C313.187 -5.12467 307.206 -6.87515 305.601 -2.93656C305.601 -2.93656 307.206 7.85807 309.978 7.1287C312.749 6.39933 315.521 4.79472 315.229 1.5855C314.791 -1.62372 317.271 -3.8118 315.229 -4.3953Z" fill="#DDD389"/>
<path d="M281.831 6.82736C284.165 7.41085 286.791 6.38974 288.541 4.63925C290.146 2.7429 290.875 0.263054 290.875 -2.2168C290.875 -2.65442 290.875 -3.09205 290.583 -3.52967C290.292 -3.82142 290 -3.96728 289.562 -4.11316C287.812 -4.69665 285.769 -5.13428 283.873 -4.98841C283.435 -4.98841 282.998 -4.84254 282.56 -4.69666C279.351 -3.67555 276.725 -0.612202 277.892 3.03464C278.476 4.78512 280.08 6.24386 281.831 6.82736Z" fill="#DDD389"/>
<path d="M3.05793 15.2922C1.0157 14.5628 -4.96512 12.8124 -6.56973 16.7509C-6.56973 16.7509 -4.96512 27.5456 -2.19353 26.8162C0.57807 26.0868 3.34968 24.4822 3.05793 21.273C2.76618 18.0638 5.24603 16.0216 3.05793 15.2922Z" fill="#DDD389"/>
<path d="M22.597 25.2067C23.6181 26.9572 28.432 27.6865 31.9329 25.2067C35.4339 22.7268 36.7468 17.1837 36.1633 16.8919C35.4339 16.6002 26.6815 13.2451 25.0769 16.8919C24.931 16.8919 21.5759 23.4562 22.597 25.2067Z" fill="#DDD389"/>
<path d="M83.8696 15.2922C81.8274 14.5628 75.8466 12.8124 74.242 16.7509C74.242 16.7509 75.8466 27.5456 78.6182 26.8162C81.3898 26.0868 84.1613 24.4822 83.8696 21.273C83.432 18.0638 85.9118 16.0216 83.8696 15.2922Z" fill="#DDD389"/>
<path d="M58.195 15.7384C56.4445 15.1549 54.4022 14.7173 52.5059 14.8632C52.0682 14.8632 51.6306 15.009 51.193 15.1549C47.9838 16.176 45.3581 19.2394 46.5251 22.8862C47.1086 24.6367 48.5673 26.2413 50.4636 26.6789C52.7976 27.2624 55.4233 26.2413 57.1738 24.4908C58.7784 22.5945 59.5078 20.1146 59.5078 17.6348C59.5078 17.1971 59.5078 16.7595 59.216 16.3219C58.9243 15.8843 58.6326 15.7384 58.195 15.7384Z" fill="#DDD389"/>
<path d="M103.269 25.2067C104.29 26.9572 109.104 27.6865 112.605 25.2067C116.106 22.7268 117.419 17.1837 116.835 16.8919C116.252 16.6002 107.353 13.2451 105.749 16.8919C105.749 16.8919 102.248 23.4562 103.269 25.2067Z" fill="#DDD389"/>
<path d="M164.527 15.2922C162.484 14.5628 156.504 12.8124 154.899 16.7509C154.899 16.7509 156.504 27.5456 159.275 26.8162C162.047 26.0868 164.818 24.4822 164.527 21.273C164.235 18.0638 166.715 16.0216 164.527 15.2922Z" fill="#DDD389"/>
<path d="M139.015 15.7384C137.265 15.1549 135.223 14.7173 133.326 14.8632C132.889 14.8632 132.451 15.009 132.013 15.1549C128.804 16.176 126.178 19.2394 127.345 22.8862C127.929 24.6367 129.388 26.2413 131.284 26.6789C133.618 27.2624 136.244 26.2413 137.994 24.4908C139.599 22.5945 140.328 20.1146 140.328 17.6348C140.328 17.1971 140.328 16.7595 140.036 16.3219C139.745 15.8843 139.307 15.7384 139.015 15.7384Z" fill="#DDD389"/>
<path d="M184.081 25.2067C185.103 26.9572 189.916 27.6865 193.417 25.2067C196.918 22.7268 198.231 17.1837 197.648 16.8919C196.918 16.6002 188.166 13.2451 186.561 16.8919C186.415 16.8919 183.06 23.4562 184.081 25.2067Z" fill="#DDD389"/>
<path d="M245.362 15.2922C243.32 14.5628 237.339 12.8124 235.734 16.7509C235.734 16.7509 237.339 27.5456 240.11 26.8162C242.882 26.0868 245.654 24.4822 245.362 21.273C244.924 18.0638 247.404 16.0216 245.362 15.2922Z" fill="#DDD389"/>
<path d="M219.82 15.7384C218.069 15.1549 216.027 14.7173 214.131 14.8632C213.693 14.8632 213.256 15.009 212.818 15.1549C209.609 16.176 206.983 19.2394 208.15 22.8862C208.734 24.6367 210.192 26.2413 212.089 26.6789C214.423 27.2624 217.048 26.2413 218.799 24.4908C220.403 22.5945 221.133 20.1146 221.133 17.6348C221.133 17.1971 221.133 16.7595 220.841 16.3219C220.549 15.8843 220.112 15.7384 219.82 15.7384Z" fill="#DDD389"/>
<path d="M264.761 25.2067C265.782 26.9572 270.596 27.6865 274.097 25.2067C277.598 22.7268 278.911 17.1837 278.327 16.8919C277.598 16.6002 268.846 13.2451 267.241 16.8919C267.241 16.8919 263.74 23.4562 264.761 25.2067Z" fill="#DDD389"/>
<path d="M300.5 15.7384C298.749 15.1549 296.707 14.7173 294.811 14.8632C294.373 14.8632 293.935 15.009 293.498 15.1549C290.288 16.176 287.663 19.2394 288.83 22.8862C289.413 24.6367 290.872 26.2413 292.768 26.6789C295.102 27.2624 297.728 26.2413 299.479 24.4908C301.083 22.5945 301.813 20.1146 301.813 17.6348C301.813 17.1971 301.813 16.7595 301.521 16.3219C301.229 15.8843 300.937 15.7384 300.5 15.7384Z" fill="#DDD389"/>
<path d="M20.9954 45.777C24.4964 43.2972 25.8093 37.754 25.2258 37.4622C24.4964 37.1705 15.744 33.8154 14.1394 37.4622C14.1394 37.4622 10.6384 44.0265 11.6595 45.777C12.6806 47.5275 17.4945 48.2569 20.9954 45.777Z" fill="#DDD389"/>
<path d="M72.9321 36.011C70.8899 35.2816 64.9091 33.5311 63.3045 37.4697C63.3045 37.4697 64.9091 48.2643 67.6807 47.5349C70.4523 46.8056 73.2238 45.201 72.9321 41.9918C72.4945 38.7825 74.9743 36.5944 72.9321 36.011Z" fill="#DDD389"/>
<path d="M48.2707 36.8766C47.979 36.5848 47.6873 36.439 47.2496 36.2931C45.4992 35.7096 43.4569 35.272 41.5605 35.4178C41.1229 35.4178 40.6853 35.5637 40.2477 35.7096C37.0385 36.7307 34.4128 39.794 35.5798 43.4409C36.1633 45.1914 37.622 46.796 39.5183 47.2336C41.8523 47.8171 44.478 46.796 46.2285 45.0455C47.8331 43.1491 48.5625 40.6693 48.5625 38.1895C48.5625 37.7518 48.5625 37.1683 48.2707 36.8766Z" fill="#DDD389"/>
<path d="M101.808 45.777C105.309 43.2972 106.622 37.754 106.038 37.4622C105.309 37.1705 96.5565 33.8154 94.9519 37.4622C94.9519 37.4622 91.4509 44.0265 92.472 45.777C93.4932 47.5275 98.307 48.2569 101.808 45.777Z" fill="#DDD389"/>
<path d="M153.745 36.011C151.702 35.2816 145.722 33.5311 144.117 37.4697C144.117 37.4697 145.722 48.2643 148.493 47.5349C151.265 46.8056 154.036 45.201 153.745 41.9918C153.307 38.7825 155.787 36.5944 153.745 36.011Z" fill="#DDD389"/>
<path d="M129.091 36.8766C128.799 36.5848 128.508 36.439 128.07 36.2931C126.319 35.7096 124.277 35.272 122.381 35.4178C121.943 35.4178 121.506 35.5637 121.068 35.7096C117.859 36.7307 115.233 39.794 116.4 43.4409C116.984 45.1914 118.442 46.796 120.339 47.2336C122.673 47.8171 125.298 46.796 127.049 45.0455C128.653 43.1491 129.383 40.6693 129.383 38.1895C129.383 37.7518 129.383 37.1683 129.091 36.8766Z" fill="#DDD389"/>
<path d="M182.488 45.777C185.989 43.2972 187.301 37.754 186.718 37.4622C186.134 37.1705 177.236 33.8154 175.632 37.4622C175.632 37.4622 172.131 44.0265 173.152 45.777C174.173 47.5275 178.987 48.2569 182.488 45.777Z" fill="#DDD389"/>
<path d="M234.415 36.011C232.372 35.2816 226.392 33.5311 224.787 37.4697C224.787 37.4697 226.392 48.2643 229.163 47.5349C231.935 46.8056 234.706 45.201 234.415 41.9918C233.977 38.7825 236.603 36.5944 234.415 36.011Z" fill="#DDD389"/>
<path d="M209.768 36.8766C209.476 36.5848 209.185 36.439 208.747 36.2931C206.997 35.7096 204.954 35.272 203.058 35.4178C202.62 35.4178 202.183 35.5637 201.745 35.7096C198.536 36.7307 195.91 39.794 197.077 43.4409C197.661 45.1914 199.119 46.796 201.016 47.2336C203.35 47.8171 205.975 46.796 207.726 45.0455C209.331 43.1491 210.06 40.6693 210.06 38.1895C210.206 37.7518 210.06 37.1683 209.768 36.8766Z" fill="#DDD389"/>
<path d="M263.285 45.777C266.785 43.2972 268.098 37.754 267.515 37.4622C266.785 37.1705 258.033 33.8154 256.428 37.4622C256.428 37.4622 252.927 44.0265 253.949 45.777C254.97 47.5275 259.784 48.2569 263.285 45.777Z" fill="#DDD389"/>
<path d="M315.229 36.011C313.187 35.2816 307.206 33.5311 305.601 37.4697C305.601 37.4697 307.206 48.2643 309.978 47.5349C312.749 46.8056 315.521 45.201 315.229 41.9918C314.791 38.7825 317.271 36.5944 315.229 36.011Z" fill="#DDD389"/>
<path d="M290.583 36.8766C290.292 36.5848 290 36.439 289.562 36.2931C287.812 35.7096 285.769 35.272 283.873 35.4178C283.435 35.4178 282.998 35.5637 282.56 35.7096C279.351 36.7307 276.725 39.794 277.892 43.4409C278.476 45.1914 279.934 46.796 281.831 47.2336C284.165 47.8171 286.791 46.796 288.541 45.0455C290.146 43.1491 290.875 40.6693 290.875 38.1895C290.875 37.7518 290.875 37.1683 290.583 36.8766Z" fill="#DDD389"/>
<path d="M3.05793 55.7063C1.0157 54.9769 -4.96512 53.2264 -6.56973 57.165C-6.56973 57.165 -4.96512 67.9596 -2.19353 67.2303C0.57807 66.5009 3.34968 64.8963 3.05793 61.6871C2.76618 58.4778 5.24603 56.4356 3.05793 55.7063Z" fill="#DDD389"/>
<path d="M36.025 57.3059C35.2956 57.0142 26.5432 53.6591 24.9386 57.3059C24.9386 57.3059 21.4377 63.8703 22.4588 65.6208C23.4799 67.3712 28.2937 68.1006 31.7947 65.6208C35.4415 63.1409 36.7544 57.5977 36.025 57.3059Z" fill="#DDD389"/>
<path d="M83.8696 55.7063C81.8274 54.9769 75.8466 53.2264 74.242 57.165C74.242 57.165 75.8466 67.9596 78.6182 67.2303C81.3898 66.5009 84.1613 64.8963 83.8696 61.6871C83.432 58.4778 85.9118 56.4356 83.8696 55.7063Z" fill="#DDD389"/>
<path d="M58.195 55.9806C56.4445 55.3971 54.4022 54.9595 52.5059 55.1053C52.0682 55.1053 51.6306 55.2512 51.193 55.3971C47.9838 56.4182 45.3581 59.4815 46.5251 63.1284C47.1086 64.8789 48.5673 66.4835 50.4636 66.9211C52.7976 67.5046 55.4233 66.4835 57.1738 64.733C58.7784 62.8366 59.5078 60.3568 59.5078 57.877C59.5078 57.4393 59.5078 57.0017 59.216 56.5641C58.9243 56.2723 58.6326 56.1265 58.195 55.9806Z" fill="#DDD389"/>
<path d="M116.84 57.3059C116.111 57.0142 107.359 53.6591 105.754 57.3059C105.754 57.3059 102.253 63.8703 103.274 65.6208C104.295 67.3712 109.109 68.1006 112.61 65.6208C116.111 63.1409 117.57 57.5977 116.84 57.3059Z" fill="#DDD389"/>
<path d="M164.527 55.7063C162.484 54.9769 156.504 53.2264 154.899 57.165C154.899 57.165 156.504 67.9596 159.275 67.2303C162.047 66.5009 164.818 64.8963 164.527 61.6871C164.235 58.4778 166.715 56.4356 164.527 55.7063Z" fill="#DDD389"/>
<path d="M139.015 55.9806C137.265 55.3971 135.223 54.9595 133.326 55.1053C132.889 55.1053 132.451 55.2512 132.013 55.3971C128.804 56.4182 126.178 59.4815 127.345 63.1284C127.929 64.8789 129.388 66.4835 131.284 66.9211C133.618 67.5046 136.244 66.4835 137.994 64.733C139.599 62.8366 140.328 60.3568 140.328 57.877C140.328 57.4393 140.328 57.0017 140.036 56.5641C139.745 56.2723 139.307 56.1265 139.015 55.9806Z" fill="#DDD389"/>
<path d="M197.517 57.3059C196.788 57.0142 188.035 53.6591 186.431 57.3059C186.431 57.3059 182.93 63.8703 183.951 65.6208C184.972 67.3712 189.786 68.1006 193.287 65.6208C196.934 63.1409 198.247 57.5977 197.517 57.3059Z" fill="#DDD389"/>
<path d="M245.362 55.7063C243.32 54.9769 237.339 53.2264 235.734 57.165C235.734 57.165 237.339 67.9596 240.11 67.2303C242.882 66.5009 245.654 64.8963 245.362 61.6871C244.924 58.4778 247.404 56.4356 245.362 55.7063Z" fill="#DDD389"/>
<path d="M219.82 55.9806C218.069 55.3971 216.027 54.9595 214.131 55.1053C213.693 55.1053 213.256 55.2512 212.818 55.3971C209.609 56.4182 206.983 59.4815 208.15 63.1284C208.734 64.8789 210.192 66.4835 212.089 66.9211C214.423 67.5046 217.048 66.4835 218.799 64.733C220.403 62.8366 221.133 60.3568 221.133 57.877C221.133 57.4393 221.133 57.0017 220.841 56.5641C220.549 56.2723 220.112 56.1265 219.82 55.9806Z" fill="#DDD389"/>
<path d="M278.317 57.3059C277.588 57.0142 268.835 53.6591 267.231 57.3059C267.231 57.3059 263.73 63.8703 264.751 65.6208C265.772 67.3712 270.586 68.1006 274.087 65.6208C277.588 63.1409 279.046 57.5977 278.317 57.3059Z" fill="#DDD389"/>
<path d="M300.5 55.9806C298.749 55.3971 296.707 54.9595 294.811 55.1053C294.373 55.1053 293.935 55.2512 293.498 55.3971C290.288 56.4182 287.663 59.4815 288.83 63.1284C289.413 64.8789 290.872 66.4835 292.768 66.9211C295.102 67.5046 297.728 66.4835 299.479 64.733C301.083 62.8366 301.813 60.3568 301.813 57.877C301.813 57.4393 301.813 57.0017 301.521 56.5641C301.229 56.2723 300.937 56.1265 300.5 55.9806Z" fill="#DDD389"/>
<path d="M20.9954 86.1911C24.4964 83.7112 25.8093 78.168 25.2258 77.8763C24.4964 77.5845 15.744 74.2294 14.1394 77.8763C14.1394 77.8763 10.6384 84.4406 11.6595 86.1911C12.6806 87.9415 17.4945 88.6709 20.9954 86.1911Z" fill="#DDD389"/>
<path d="M72.9321 76.2609C70.8899 75.5316 64.9091 73.7811 63.3045 77.7197C63.3045 77.7197 64.9091 88.5143 67.6807 87.7849C70.4523 87.0556 73.2238 85.451 72.9321 82.2418C72.4945 79.0325 74.9743 76.9903 72.9321 76.2609Z" fill="#DDD389"/>
<path d="M48.2707 77.2907C47.979 76.9989 47.6873 76.853 47.2496 76.7072C45.4992 76.1237 43.4569 75.6861 41.5605 75.8319C41.1229 75.8319 40.6853 75.9778 40.2477 76.1237C37.0385 77.1448 34.4128 80.2081 35.5798 83.855C36.1633 85.6055 37.622 87.21 39.5183 87.6477C41.8523 88.2312 44.478 87.21 46.2285 85.4596C47.8331 83.5632 48.5625 81.0834 48.5625 78.6035C48.5625 78.1659 48.5625 77.5824 48.2707 77.2907Z" fill="#DDD389"/>
<path d="M101.808 86.1911C105.309 83.7112 106.622 78.168 106.038 77.8763C105.309 77.5845 96.5565 74.2294 94.9519 77.8763C94.9519 77.8763 91.4509 84.4406 92.472 86.1911C93.4932 87.9415 98.307 88.6709 101.808 86.1911Z" fill="#DDD389"/>
<path d="M153.745 76.2609C151.702 75.5316 145.722 73.7811 144.117 77.7197C144.117 77.7197 145.722 88.5143 148.493 87.7849C151.265 87.0556 154.036 85.451 153.745 82.2418C153.307 79.0325 155.787 76.9903 153.745 76.2609Z" fill="#DDD389"/>
<path d="M129.091 77.2907C128.799 76.9989 128.508 76.853 128.07 76.7072C126.319 76.1237 124.277 75.6861 122.381 75.8319C121.943 75.8319 121.506 75.9778 121.068 76.1237C117.859 77.1448 115.233 80.2081 116.4 83.855C116.984 85.6055 118.442 87.21 120.339 87.6477C122.673 88.2312 125.298 87.21 127.049 85.4596C128.653 83.5632 129.383 81.0834 129.383 78.6035C129.383 78.1659 129.383 77.5824 129.091 77.2907Z" fill="#DDD389"/>
<path d="M182.488 86.1911C185.989 83.7112 187.301 78.168 186.718 77.8763C186.134 77.5845 177.236 74.2294 175.632 77.8763C175.632 77.8763 172.131 84.4406 173.152 86.1911C174.173 87.9415 178.987 88.6709 182.488 86.1911Z" fill="#DDD389"/>
<path d="M234.415 76.2609C232.372 75.5316 226.392 73.7811 224.787 77.7197C224.787 77.7197 226.392 88.5143 229.163 87.7849C231.935 87.0556 234.706 85.451 234.415 82.2418C233.977 79.0325 236.603 76.9903 234.415 76.2609Z" fill="#DDD389"/>
<path d="M209.768 77.2907C209.476 76.9989 209.185 76.853 208.747 76.7072C206.997 76.1237 204.954 75.6861 203.058 75.8319C202.62 75.8319 202.183 75.9778 201.745 76.1237C198.536 77.1448 195.91 80.2081 197.077 83.855C197.661 85.6055 199.119 87.21 201.016 87.6477C203.35 88.2312 205.975 87.21 207.726 85.4596C209.331 83.5632 210.06 81.0834 210.06 78.6035C210.206 78.1659 210.06 77.5824 209.768 77.2907Z" fill="#DDD389"/>
<path d="M263.285 86.1911C266.785 83.7112 268.098 78.168 267.515 77.8763C266.785 77.5845 258.033 74.2294 256.428 77.8763C256.428 77.8763 252.927 84.4406 253.949 86.1911C254.97 87.9415 259.784 88.6709 263.285 86.1911Z" fill="#DDD389"/>
<path d="M315.229 76.2609C313.187 75.5316 307.206 73.7811 305.601 77.7197C305.601 77.7197 307.206 88.5143 309.978 87.7849C312.749 87.0556 315.521 85.451 315.229 82.2418C314.791 79.0325 317.271 76.9903 315.229 76.2609Z" fill="#DDD389"/>
<path d="M290.583 77.2907C290.292 76.9989 290 76.853 289.562 76.7072C287.812 76.1237 285.769 75.6861 283.873 75.8319C283.435 75.8319 282.998 75.9778 282.56 76.1237C279.351 77.1448 276.725 80.2081 277.892 83.855C278.476 85.6055 279.934 87.21 281.831 87.6477C284.165 88.2312 286.791 87.21 288.541 85.4596C290.146 83.5632 290.875 81.0834 290.875 78.6035C290.875 78.1659 290.875 77.5824 290.583 77.2907Z" fill="#DDD389"/>
<path d="M3.05793 96.1047C1.0157 95.3753 -4.96512 93.6249 -6.56973 97.5634C-6.56973 97.5634 -4.96512 108.358 -2.19353 107.629C0.57807 106.899 3.34968 105.295 3.05793 102.086C2.76618 98.8763 5.24603 96.8341 3.05793 96.1047Z" fill="#DDD389"/>
<path d="M22.6126 106.027C23.6337 107.777 28.4476 108.507 31.9486 106.027C35.4495 103.547 36.7624 98.004 36.1789 97.7122C35.4495 97.4205 26.6971 94.0654 25.0925 97.7122C24.9466 97.7122 21.5915 104.277 22.6126 106.027Z" fill="#DDD389"/>
<path d="M83.8696 96.1047C81.8274 95.3753 75.8466 93.6249 74.242 97.5634C74.242 97.5634 75.8466 108.358 78.6182 107.629C81.3898 106.899 84.1613 105.295 83.8696 102.086C83.432 98.8763 85.9118 96.8341 83.8696 96.1047Z" fill="#DDD389"/>
<path d="M58.2028 96.3947C56.4523 95.8112 54.41 95.3736 52.5137 95.5194C52.0761 95.5194 51.6384 95.6653 51.2008 95.8112C47.9916 96.8323 45.3659 99.8956 46.5329 103.542C47.1164 105.293 48.5751 106.898 50.4715 107.335C52.8054 107.919 55.4312 106.898 57.1816 105.147C58.7862 103.251 59.5156 100.771 59.5156 98.291C59.5156 97.8534 59.5156 97.2699 59.2239 96.9782C58.9321 96.6864 58.6404 96.5405 58.2028 96.3947Z" fill="#DDD389"/>
<path d="M103.269 106.027C104.29 107.777 109.104 108.507 112.605 106.027C116.106 103.547 117.419 98.004 116.835 97.7122C116.252 97.4205 107.353 94.0654 105.749 97.7122C105.749 97.7122 102.248 104.277 103.269 106.027Z" fill="#DDD389"/>
<path d="M164.542 96.1047C162.5 95.3753 156.519 93.6249 154.915 97.5634C154.915 97.5634 156.519 108.358 159.291 107.629C162.062 106.899 164.834 105.295 164.542 102.086C164.251 98.8763 166.73 96.8341 164.542 96.1047Z" fill="#DDD389"/>
<path d="M139.015 96.3947C137.265 95.8112 135.223 95.3736 133.326 95.5194C132.889 95.5194 132.451 95.6653 132.013 95.8112C128.804 96.8323 126.178 99.8956 127.345 103.542C127.929 105.293 129.388 106.898 131.284 107.335C133.618 107.919 136.244 106.898 137.994 105.147C139.599 103.251 140.328 100.771 140.328 98.291C140.328 97.8534 140.328 97.2699 140.036 96.9782C139.745 96.6864 139.307 96.5405 139.015 96.3947Z" fill="#DDD389"/>
<path d="M184.081 106.027C185.103 107.777 189.916 108.507 193.417 106.027C196.918 103.547 198.231 98.004 197.648 97.7122C196.918 97.4205 188.166 94.0654 186.561 97.7122C186.415 97.7122 183.06 104.277 184.081 106.027Z" fill="#DDD389"/>
<path d="M245.346 96.1047C243.304 95.3753 237.323 93.6249 235.718 97.5634C235.718 97.5634 237.323 108.358 240.095 107.629C242.866 106.899 245.638 105.295 245.346 102.086C244.909 98.8763 247.388 96.8341 245.346 96.1047Z" fill="#DDD389"/>
<path d="M219.82 96.3947C218.069 95.8112 216.027 95.3736 214.131 95.5194C213.693 95.5194 213.256 95.6653 212.818 95.8112C209.609 96.8323 206.983 99.8956 208.15 103.542C208.734 105.293 210.192 106.898 212.089 107.335C214.423 107.919 217.048 106.898 218.799 105.147C220.403 103.251 221.133 100.771 221.133 98.291C221.133 97.8534 221.133 97.2699 220.841 96.9782C220.549 96.6864 220.112 96.5405 219.82 96.3947Z" fill="#DDD389"/>
<path d="M264.753 106.027C265.774 107.777 270.588 108.507 274.089 106.027C277.59 103.547 278.903 98.004 278.32 97.7122C277.59 97.4205 268.838 94.0654 267.233 97.7122C267.233 97.7122 263.732 104.277 264.753 106.027Z" fill="#DDD389"/>
<path d="M300.484 96.3947C298.734 95.8112 296.691 95.3736 294.795 95.5194C294.357 95.5194 293.92 95.6653 293.482 95.8112C290.273 96.8323 287.647 99.8956 288.814 103.542C289.398 105.293 290.856 106.898 292.753 107.335C295.087 107.919 297.712 106.898 299.463 105.147C301.068 103.251 301.797 100.771 301.797 98.291C301.797 97.8534 301.797 97.2699 301.505 96.9782C301.213 96.6864 300.922 96.5405 300.484 96.3947Z" fill="#DDD389"/>
<path d="M21.0033 126.597C24.5042 124.117 25.8171 118.574 25.2336 118.283C24.5042 117.991 15.7518 114.636 14.1472 118.283C14.1472 118.283 10.6462 124.847 11.6673 126.597C12.6884 128.348 17.5023 129.077 21.0033 126.597Z" fill="#DDD389"/>
<path d="M72.9321 116.667C70.8899 115.938 64.9091 114.187 63.3045 118.126C63.3045 118.126 64.9091 128.921 67.6807 128.191C70.4523 127.462 73.2238 125.857 72.9321 122.648C72.4945 119.439 74.9743 117.397 72.9321 116.667Z" fill="#DDD389"/>
<path d="M48.2785 117.697C47.9868 117.405 47.6951 117.259 47.2575 117.113C45.507 116.53 43.4647 116.092 41.5684 116.238C41.1307 116.238 40.6931 116.384 40.2555 116.53C37.0463 117.551 34.4206 120.614 35.5876 124.261C36.1711 126.012 37.6298 127.616 39.5261 128.054C41.8601 128.637 44.4858 127.616 46.2363 125.866C47.8409 123.969 48.5703 121.49 48.5703 119.01C48.5703 118.572 48.5703 117.989 48.2785 117.697Z" fill="#DDD389"/>
<path d="M101.816 126.597C105.317 124.117 106.63 118.574 106.046 118.283C105.317 117.991 96.5643 114.636 94.9597 118.283C94.9597 118.283 91.4587 124.847 92.4799 126.597C93.501 128.348 98.3148 129.077 101.816 126.597Z" fill="#DDD389"/>
<path d="M153.752 116.667C151.71 115.938 145.729 114.187 144.125 118.126C144.125 118.126 145.729 128.921 148.501 128.191C151.273 127.462 154.044 125.857 153.752 122.648C153.315 119.439 155.795 117.397 153.752 116.667Z" fill="#DDD389"/>
<path d="M129.091 117.697C128.799 117.405 128.508 117.259 128.07 117.113C126.319 116.53 124.277 116.092 122.381 116.238C121.943 116.238 121.506 116.384 121.068 116.53C117.859 117.551 115.233 120.614 116.4 124.261C116.984 126.012 118.442 127.616 120.339 128.054C122.673 128.637 125.298 127.616 127.049 125.866C128.653 123.969 129.383 121.49 129.383 119.01C129.383 118.572 129.383 117.989 129.091 117.697Z" fill="#DDD389"/>
<path d="M182.488 126.597C185.989 124.117 187.301 118.574 186.718 118.283C185.989 117.991 177.236 114.636 175.632 118.283C175.632 118.283 172.131 124.847 173.152 126.597C174.173 128.348 178.987 129.077 182.488 126.597Z" fill="#DDD389"/>
<path d="M234.407 116.667C232.365 115.938 226.384 114.187 224.779 118.126C224.779 118.126 226.384 128.921 229.155 128.191C231.927 127.462 234.699 125.857 234.407 122.648C233.969 119.439 236.595 117.397 234.407 116.667Z" fill="#DDD389"/>
<path d="M209.76 117.697C209.469 117.405 209.177 117.259 208.739 117.113C206.989 116.53 204.947 116.092 203.05 116.238C202.613 116.238 202.175 116.384 201.737 116.53C198.528 117.551 195.902 120.614 197.069 124.261C197.653 126.012 199.112 127.616 201.008 128.054C203.342 128.637 205.968 127.616 207.718 125.866C209.323 123.969 210.052 121.49 210.052 119.01C210.198 118.572 210.052 117.989 209.76 117.697Z" fill="#DDD389"/>
<path d="M263.285 126.597C266.785 124.117 268.098 118.574 267.515 118.283C266.785 117.991 258.033 114.636 256.428 118.283C256.428 118.283 252.927 124.847 253.949 126.597C254.97 128.348 259.784 129.077 263.285 126.597Z" fill="#DDD389"/>
<path d="M315.229 116.667C313.187 115.938 307.206 114.187 305.601 118.126C305.601 118.126 307.206 128.921 309.978 128.191C312.749 127.462 315.521 125.857 315.229 122.648C314.791 119.439 317.271 117.397 315.229 116.667Z" fill="#DDD389"/>
<path d="M290.575 117.697C290.284 117.405 289.992 117.259 289.554 117.113C287.804 116.53 285.762 116.092 283.865 116.238C283.428 116.238 282.99 116.384 282.552 116.53C279.343 117.551 276.717 120.614 277.884 124.261C278.468 126.012 279.927 127.616 281.823 128.054C284.157 128.637 286.783 127.616 288.533 125.866C290.138 123.969 290.867 121.49 290.867 119.01C290.867 118.572 290.867 117.989 290.575 117.697Z" fill="#DDD389"/>
<path d="M3.05793 136.519C1.0157 135.789 -4.96512 134.039 -6.56973 137.977C-6.56973 137.977 -4.96512 148.772 -2.19353 148.043C0.57807 147.313 3.34968 145.709 3.05793 142.5C2.76618 139.29 5.24603 137.102 3.05793 136.519Z" fill="#DDD389"/>
<path d="M22.6126 146.433C23.6337 148.184 28.4476 148.913 31.9486 146.433C35.4495 143.953 36.7624 138.41 36.1789 138.118C35.4495 137.827 26.6971 134.472 25.0925 138.118C24.9466 138.118 21.5915 144.683 22.6126 146.433Z" fill="#DDD389"/>
<path d="M83.8696 136.519C81.8274 135.789 75.8466 134.039 74.242 137.977C74.242 137.977 75.8466 148.772 78.6182 148.043C81.3898 147.313 84.1613 145.709 83.8696 142.5C83.432 139.29 85.9118 137.102 83.8696 136.519Z" fill="#DDD389"/>
<path d="M58.2028 136.809C56.4523 136.225 54.41 135.788 52.5137 135.933C52.0761 135.933 51.6384 136.079 51.2008 136.225C47.9916 137.246 45.3659 140.31 46.5329 143.957C47.1164 145.707 48.5751 147.312 50.4715 147.749C52.8054 148.333 55.4312 147.312 57.1816 145.561C58.7862 143.665 59.5156 141.185 59.5156 138.705C59.5156 138.267 59.5156 137.684 59.2239 137.392C58.9321 137.1 58.6404 136.955 58.2028 136.809Z" fill="#DDD389"/>
<path d="M103.269 146.433C104.29 148.184 109.104 148.913 112.605 146.433C116.106 143.953 117.419 138.41 116.835 138.118C116.106 137.827 107.353 134.472 105.749 138.118C105.749 138.118 102.248 144.683 103.269 146.433Z" fill="#DDD389"/>
<path d="M164.542 136.519C162.5 135.789 156.519 134.039 154.915 137.977C154.915 137.977 156.519 148.772 159.291 148.043C162.062 147.313 164.834 145.709 164.542 142.5C164.251 139.29 166.73 137.102 164.542 136.519Z" fill="#DDD389"/>
<path d="M139.015 136.809C137.265 136.225 135.223 135.788 133.326 135.933C132.889 135.933 132.451 136.079 132.013 136.225C128.804 137.246 126.178 140.31 127.345 143.957C127.929 145.707 129.388 147.312 131.284 147.749C133.618 148.333 136.244 147.312 137.994 145.561C139.599 143.665 140.328 141.185 140.328 138.705C140.328 138.267 140.328 137.684 140.036 137.392C139.745 137.1 139.307 136.955 139.015 136.809Z" fill="#DDD389"/>
<path d="M184.081 146.433C185.103 148.184 189.916 148.913 193.417 146.433C196.918 143.953 198.231 138.41 197.648 138.118C196.918 137.827 188.166 134.472 186.561 138.118C186.415 138.118 183.06 144.683 184.081 146.433Z" fill="#DDD389"/>
<path d="M245.346 136.519C243.304 135.789 237.323 134.039 235.718 137.977C235.718 137.977 237.323 148.772 240.095 148.043C242.866 147.313 245.638 145.709 245.346 142.5C244.909 139.29 247.388 137.102 245.346 136.519Z" fill="#DDD389"/>
<path d="M219.82 136.809C218.069 136.225 216.027 135.788 214.131 135.933C213.693 135.933 213.256 136.079 212.818 136.225C209.609 137.246 206.983 140.31 208.15 143.957C208.734 145.707 210.192 147.312 212.089 147.749C214.423 148.333 217.048 147.312 218.799 145.561C220.403 143.665 221.133 141.185 221.133 138.705C221.133 138.267 221.133 137.684 220.841 137.392C220.549 137.1 220.112 136.955 219.82 136.809Z" fill="#DDD389"/>
<path d="M264.753 146.433C265.774 148.184 270.588 148.913 274.089 146.433C277.59 143.953 278.903 138.41 278.32 138.118C277.59 137.827 268.838 134.472 267.233 138.118C267.233 138.118 263.732 144.683 264.753 146.433Z" fill="#DDD389"/>
<path d="M300.484 136.809C298.734 136.225 296.691 135.788 294.795 135.933C294.357 135.933 293.92 136.079 293.482 136.225C290.273 137.246 287.647 140.31 288.814 143.957C289.398 145.707 290.856 147.312 292.753 147.749C295.087 148.333 297.712 147.312 299.463 145.561C301.068 143.665 301.797 141.185 301.797 138.705C301.797 138.267 301.797 137.684 301.505 137.392C301.213 137.1 300.922 136.955 300.484 136.809Z" fill="#DDD389"/>
<path d="M21.0033 167.004C24.5042 164.524 25.8171 158.981 25.2336 158.689C24.5042 158.397 15.7518 155.042 14.1472 158.689C14.1472 158.689 10.6462 165.253 11.6673 167.004C12.6884 168.754 17.5023 169.483 21.0033 167.004Z" fill="#DDD389"/>
<path d="M72.9321 157.081C70.8899 156.352 64.9091 154.601 63.3045 158.54C63.3045 158.54 64.9091 169.335 67.6807 168.605C70.4523 167.876 73.2238 166.271 72.9321 163.062C72.4945 159.853 74.9743 157.811 72.9321 157.081Z" fill="#DDD389"/>
<path d="M48.2785 158.103C47.9868 157.811 47.6951 157.666 47.2575 157.52C45.507 156.936 43.4647 156.499 41.5684 156.644C41.1307 156.644 40.6931 156.79 40.2555 156.936C37.0463 157.957 34.4206 161.021 35.5876 164.667C36.1711 166.418 37.6298 168.023 39.5261 168.46C41.8601 169.044 44.4858 168.023 46.2363 166.272C47.8409 164.376 48.5703 161.896 48.5703 159.416C48.5703 158.833 48.5703 158.395 48.2785 158.103Z" fill="#DDD389"/>
<path d="M101.816 167.004C105.317 164.524 106.63 158.981 106.046 158.689C105.317 158.397 96.5643 155.042 94.9597 158.689C94.9597 158.689 91.4587 165.253 92.4799 167.004C93.501 168.754 98.3148 169.483 101.816 167.004Z" fill="#DDD389"/>
<path d="M153.752 157.081C151.71 156.352 145.729 154.601 144.125 158.54C144.125 158.54 145.729 169.335 148.501 168.605C151.273 167.876 154.044 166.271 153.752 163.062C153.315 159.853 155.795 157.811 153.752 157.081Z" fill="#DDD389"/>
<path d="M129.091 158.103C128.799 157.811 128.508 157.666 128.07 157.52C126.319 156.936 124.277 156.499 122.381 156.644C121.943 156.644 121.506 156.79 121.068 156.936C117.859 157.957 115.233 161.021 116.4 164.667C116.984 166.418 118.442 168.023 120.339 168.46C122.673 169.044 125.298 168.023 127.049 166.272C128.653 164.376 129.383 161.896 129.383 159.416C129.383 158.833 129.383 158.395 129.091 158.103Z" fill="#DDD389"/>
<path d="M182.488 167.004C185.989 164.524 187.301 158.981 186.718 158.689C186.134 158.397 177.236 155.042 175.632 158.689C175.632 158.689 172.131 165.253 173.152 167.004C174.173 168.754 178.987 169.483 182.488 167.004Z" fill="#DDD389"/>
<path d="M234.407 157.081C232.365 156.352 226.384 154.601 224.779 158.54C224.779 158.54 226.384 169.335 229.155 168.605C231.927 167.876 234.699 166.271 234.407 163.062C233.969 159.853 236.595 157.811 234.407 157.081Z" fill="#DDD389"/>
<path d="M209.76 158.103C209.469 157.811 209.177 157.666 208.739 157.52C206.989 156.936 204.947 156.499 203.05 156.644C202.613 156.644 202.175 156.79 201.737 156.936C198.528 157.957 195.902 161.021 197.069 164.667C197.653 166.418 199.112 168.023 201.008 168.46C203.342 169.044 205.968 168.023 207.718 166.272C209.323 164.376 210.052 161.896 210.052 159.416C210.198 158.833 210.052 158.395 209.76 158.103Z" fill="#DDD389"/>
<path d="M263.285 167.004C266.785 164.524 268.098 158.981 267.515 158.689C266.785 158.397 258.033 155.042 256.428 158.689C256.428 158.689 252.927 165.253 253.949 167.004C254.97 168.754 259.784 169.483 263.285 167.004Z" fill="#DDD389"/>
<path d="M315.229 157.081C313.187 156.352 307.206 154.601 305.601 158.54C305.601 158.54 307.206 169.335 309.978 168.605C312.749 167.876 315.521 166.271 315.229 163.062C314.791 159.853 317.271 157.811 315.229 157.081Z" fill="#DDD389"/>
<path d="M290.575 158.103C290.284 157.811 289.992 157.666 289.554 157.52C287.804 156.936 285.762 156.499 283.865 156.644C283.428 156.644 282.99 156.79 282.552 156.936C279.343 157.957 276.717 161.021 277.884 164.667C278.468 166.418 279.927 168.023 281.823 168.46C284.157 169.044 286.783 168.023 288.533 166.272C290.138 164.376 290.867 161.896 290.867 159.416C290.867 158.833 290.867 158.395 290.575 158.103Z" fill="#DDD389"/>
<path d="M3.05793 176.909C1.0157 176.18 -4.96512 174.43 -6.56973 178.368C-6.56973 178.368 -4.96512 189.163 -2.19353 188.433C0.57807 187.704 3.34968 186.099 3.05793 182.89C2.76618 179.681 5.24603 177.493 3.05793 176.909Z" fill="#DDD389"/>
<path d="M22.6126 186.84C23.6337 188.59 28.4476 189.319 31.9486 186.84C35.4495 184.36 36.7624 178.816 36.1789 178.525C35.4495 178.233 26.6971 174.878 25.0925 178.525C24.9466 178.379 21.5915 185.089 22.6126 186.84Z" fill="#DDD389"/>
<path d="M83.8696 176.909C81.8274 176.18 75.8466 174.43 74.242 178.368C74.242 178.368 75.8466 189.163 78.6182 188.433C81.3898 187.704 84.1613 186.099 83.8696 182.89C83.432 179.681 85.9118 177.493 83.8696 176.909Z" fill="#DDD389"/>
<path d="M58.2028 177.207C56.4523 176.624 54.41 176.186 52.5137 176.332C52.0761 176.332 51.6384 176.478 51.2008 176.624C47.9916 177.645 45.3659 180.708 46.5329 184.355C47.1164 186.105 48.5751 187.71 50.4715 188.148C52.8054 188.731 55.4312 187.71 57.1816 185.96C58.7862 184.063 59.5156 181.583 59.5156 179.104C59.5156 178.666 59.5156 178.082 59.2239 177.791C58.9321 177.499 58.6404 177.353 58.2028 177.207Z" fill="#DDD389"/>
<path d="M103.269 186.84C104.29 188.59 109.104 189.319 112.605 186.84C116.106 184.36 117.419 178.816 116.835 178.525C116.106 178.233 107.353 174.878 105.749 178.525C105.749 178.379 102.248 185.089 103.269 186.84Z" fill="#DDD389"/>
<path d="M164.542 176.909C162.5 176.18 156.519 174.43 154.915 178.368C154.915 178.368 156.519 189.163 159.291 188.433C162.062 187.704 164.834 186.099 164.542 182.89C164.251 179.681 166.73 177.493 164.542 176.909Z" fill="#DDD389"/>
<path d="M139.015 177.207C137.265 176.624 135.223 176.186 133.326 176.332C132.889 176.332 132.451 176.478 132.013 176.624C128.804 177.645 126.178 180.708 127.345 184.355C127.929 186.105 129.388 187.71 131.284 188.148C133.618 188.731 136.244 187.71 137.994 185.96C139.599 184.063 140.328 181.583 140.328 179.104C140.328 178.666 140.328 178.082 140.036 177.791C139.745 177.499 139.307 177.353 139.015 177.207Z" fill="#DDD389"/>
<path d="M184.081 186.84C185.103 188.59 189.916 189.319 193.417 186.84C196.918 184.36 198.231 178.816 197.648 178.525C196.918 178.233 188.166 174.878 186.561 178.525C186.415 178.379 183.06 185.089 184.081 186.84Z" fill="#DDD389"/>
<path d="M245.346 176.909C243.304 176.18 237.323 174.43 235.718 178.368C235.718 178.368 237.323 189.163 240.095 188.433C242.866 187.704 245.638 186.099 245.346 182.89C244.909 179.681 247.388 177.493 245.346 176.909Z" fill="#DDD389"/>
<path d="M219.82 177.207C218.069 176.624 216.027 176.186 214.131 176.332C213.693 176.332 213.256 176.478 212.818 176.624C209.609 177.645 206.983 180.708 208.15 184.355C208.734 186.105 210.192 187.71 212.089 188.148C214.423 188.731 217.048 187.71 218.799 185.96C220.403 184.063 221.133 181.583 221.133 179.104C221.133 178.666 221.133 178.082 220.841 177.791C220.549 177.499 220.112 177.353 219.82 177.207Z" fill="#DDD389"/>
<path d="M264.753 186.84C265.774 188.59 270.588 189.319 274.089 186.84C277.59 184.36 278.903 178.816 278.32 178.525C277.59 178.233 268.838 174.878 267.233 178.525C267.233 178.379 263.732 185.089 264.753 186.84Z" fill="#DDD389"/>
<path d="M300.484 177.207C298.734 176.624 296.691 176.186 294.795 176.332C294.357 176.332 293.92 176.478 293.482 176.624C290.273 177.645 287.647 180.708 288.814 184.355C289.398 186.105 290.856 187.71 292.753 188.148C295.087 188.731 297.712 187.71 299.463 185.96C301.068 184.063 301.797 181.583 301.797 179.104C301.797 178.666 301.797 178.082 301.505 177.791C301.213 177.499 300.922 177.353 300.484 177.207Z" fill="#DDD389"/>
<path d="M21.0033 207.418C24.5042 204.938 25.8171 199.395 25.2336 199.103C24.5042 198.811 15.7518 195.456 14.1472 199.103C14.1472 199.103 10.6462 205.667 11.6673 207.418C12.6884 209.168 17.5023 209.897 21.0033 207.418Z" fill="#DDD389"/>
<path d="M72.9321 197.488C70.8899 196.758 64.9091 195.008 63.3045 198.946C63.3045 198.946 64.9091 209.741 67.6807 209.012C70.4523 208.282 73.2238 206.678 72.9321 203.468C72.4945 200.259 74.9743 198.217 72.9321 197.488Z" fill="#DDD389"/>
<path d="M48.2785 198.509C47.9868 198.218 47.6951 198.072 47.2575 197.926C45.507 197.342 43.4647 196.905 41.5684 197.051C41.1307 197.051 40.6931 197.197 40.2555 197.342C37.0463 198.364 34.4206 201.427 35.5876 205.074C36.1711 206.824 37.6298 208.429 39.5261 208.866C41.8601 209.45 44.4858 208.429 46.2363 206.678C47.8409 204.782 48.5703 202.302 48.5703 199.822C48.5703 199.239 48.5703 198.801 48.2785 198.509Z" fill="#DDD389"/>
<path d="M101.816 207.418C105.317 204.938 106.63 199.395 106.046 199.103C105.317 198.811 96.5643 195.456 94.9597 199.103C94.9597 199.103 91.4587 205.667 92.4799 207.418C93.501 209.168 98.3148 209.897 101.816 207.418Z" fill="#DDD389"/>
<path d="M153.752 197.488C151.71 196.758 145.729 195.008 144.125 198.946C144.125 198.946 145.729 209.741 148.501 209.012C151.273 208.282 154.044 206.678 153.752 203.468C153.315 200.259 155.795 198.217 153.752 197.488Z" fill="#DDD389"/>
<path d="M129.091 198.509C128.799 198.218 128.508 198.072 128.07 197.926C126.319 197.342 124.277 196.905 122.381 197.051C121.943 197.051 121.506 197.197 121.068 197.342C117.859 198.364 115.233 201.427 116.4 205.074C116.984 206.824 118.442 208.429 120.339 208.866C122.673 209.45 125.298 208.429 127.049 206.678C128.799 204.928 129.383 202.302 129.383 199.822C129.383 199.239 129.383 198.801 129.091 198.509Z" fill="#DDD389"/>
<path d="M182.488 207.418C185.989 204.938 187.301 199.395 186.718 199.103C185.989 198.811 177.236 195.456 175.632 199.103C175.632 199.103 172.131 205.667 173.152 207.418C174.173 209.168 178.987 209.897 182.488 207.418Z" fill="#DDD389"/>
<path d="M234.407 197.488C232.365 196.758 226.384 195.008 224.779 198.946C224.779 198.946 226.384 209.741 229.155 209.012C231.927 208.282 234.699 206.678 234.407 203.468C233.969 200.259 236.595 198.217 234.407 197.488Z" fill="#DDD389"/>
<path d="M209.76 198.509C209.469 198.218 209.177 198.072 208.739 197.926C206.989 197.342 204.947 196.905 203.05 197.051C202.613 197.051 202.175 197.197 201.737 197.342C198.528 198.364 195.902 201.427 197.069 205.074C197.653 206.824 199.112 208.429 201.008 208.866C203.342 209.45 205.968 208.429 207.718 206.678C209.323 204.782 210.052 202.302 210.052 199.822C210.198 199.239 210.052 198.801 209.76 198.509Z" fill="#DDD389"/>
<path d="M263.285 207.418C266.785 204.938 268.098 199.395 267.515 199.103C266.785 198.811 258.033 195.456 256.428 199.103C256.428 199.103 252.927 205.667 253.949 207.418C254.97 209.168 259.784 209.897 263.285 207.418Z" fill="#DDD389"/>
<path d="M315.229 197.488C313.187 196.758 307.206 195.008 305.601 198.946C305.601 198.946 307.206 209.741 309.978 209.012C312.749 208.282 315.521 206.678 315.229 203.468C314.791 200.259 317.271 198.217 315.229 197.488Z" fill="#DDD389"/>
<path d="M290.575 198.509C290.284 198.218 289.992 198.072 289.554 197.926C287.804 197.342 285.762 196.905 283.865 197.051C283.428 197.051 282.99 197.197 282.552 197.342C279.343 198.364 276.717 201.427 277.884 205.074C278.468 206.824 279.927 208.429 281.823 208.866C284.157 209.45 286.783 208.429 288.533 206.678C290.138 204.782 290.867 202.302 290.867 199.822C290.867 199.239 290.867 198.801 290.575 198.509Z" fill="#DDD389"/>
<path d="M3.05793 217.323C1.0157 216.594 -4.96512 214.844 -6.56973 218.782C-6.56973 218.782 -4.96512 229.577 -2.19353 228.847C0.57807 228.118 3.34968 226.513 3.05793 223.304C2.76618 220.095 5.24603 217.907 3.05793 217.323Z" fill="#DDD389"/>
<path d="M22.6126 227.105C23.6337 228.856 28.4476 229.585 31.9486 227.105C35.4495 224.625 36.7624 219.082 36.1789 218.79C35.4495 218.499 26.6971 215.143 25.0925 218.79C24.9466 218.79 21.5915 225.501 22.6126 227.105Z" fill="#DDD389"/>
<path d="M83.8696 217.323C81.8274 216.594 75.8466 214.844 74.242 218.782C74.242 218.782 75.8466 229.577 78.6182 228.847C81.3898 228.118 84.1613 226.513 83.8696 223.304C83.432 220.095 85.9118 217.907 83.8696 217.323Z" fill="#DDD389"/>
<path d="M58.2028 217.621C56.4523 217.038 54.41 216.6 52.5137 216.746C52.0761 216.746 51.6384 216.892 51.2008 217.038C47.9916 218.059 45.3659 221.122 46.5329 224.769C47.1164 226.519 48.5751 228.124 50.4715 228.562C52.8054 229.145 55.4312 228.124 57.1816 226.374C58.7862 224.477 59.5156 221.997 59.5156 219.518C59.5156 219.08 59.5156 218.496 59.2239 218.205C58.9321 217.913 58.6404 217.767 58.2028 217.621Z" fill="#DDD389"/>
<path d="M103.269 227.105C104.29 228.856 109.104 229.585 112.605 227.105C116.106 224.625 117.419 219.082 116.835 218.79C116.252 218.499 107.353 215.143 105.749 218.79C105.749 218.79 102.248 225.501 103.269 227.105Z" fill="#DDD389"/>
<path d="M164.542 217.323C162.5 216.594 156.519 214.844 154.915 218.782C154.915 218.782 156.519 229.577 159.291 228.847C162.062 228.118 164.834 226.513 164.542 223.304C164.251 220.095 166.73 217.907 164.542 217.323Z" fill="#DDD389"/>
<path d="M139.015 217.621C137.265 217.038 135.223 216.6 133.326 216.746C132.889 216.746 132.451 216.892 132.013 217.038C128.804 218.059 126.178 221.122 127.345 224.769C127.929 226.519 129.388 228.124 131.284 228.562C133.618 229.145 136.244 228.124 137.994 226.374C139.599 224.477 140.328 221.997 140.328 219.518C140.328 219.08 140.328 218.496 140.036 218.205C139.745 217.913 139.307 217.767 139.015 217.621Z" fill="#DDD389"/>
<path d="M184.081 227.105C185.103 228.856 189.916 229.585 193.417 227.105C196.918 224.625 198.231 219.082 197.648 218.79C196.918 218.499 188.166 215.143 186.561 218.79C186.415 218.79 183.06 225.501 184.081 227.105Z" fill="#DDD389"/>
<path d="M245.362 217.323C243.32 216.594 237.339 214.844 235.734 218.782C235.734 218.782 237.339 229.577 240.11 228.847C242.882 228.118 245.654 226.513 245.362 223.304C244.924 220.095 247.404 217.907 245.362 217.323Z" fill="#DDD389"/>
<path d="M219.82 217.621C218.069 217.038 216.027 216.6 214.131 216.746C213.693 216.746 213.256 216.892 212.818 217.038C209.609 218.059 206.983 221.122 208.15 224.769C208.734 226.519 210.192 228.124 212.089 228.562C214.423 229.145 217.048 228.124 218.799 226.374C220.403 224.477 221.133 221.997 221.133 219.518C221.133 219.08 221.133 218.496 220.841 218.205C220.549 217.913 220.112 217.767 219.82 217.621Z" fill="#DDD389"/>
<path d="M264.761 227.105C265.782 228.856 270.596 229.585 274.097 227.105C277.598 224.625 278.911 219.082 278.327 218.79C277.598 218.499 268.846 215.143 267.241 218.79C267.241 218.79 263.74 225.501 264.761 227.105Z" fill="#DDD389"/>
<path d="M300.5 217.621C298.749 217.038 296.707 216.6 294.811 216.746C294.373 216.746 293.935 216.892 293.498 217.038C290.288 218.059 287.663 221.122 288.83 224.769C289.413 226.519 290.872 228.124 292.768 228.562C295.102 229.145 297.728 228.124 299.479 226.374C301.083 224.477 301.813 221.997 301.813 219.518C301.813 219.08 301.813 218.496 301.521 218.205C301.229 217.913 300.937 217.767 300.5 217.621Z" fill="#DDD389"/>
<path d="M21.0033 247.808C24.5042 245.328 25.8171 239.785 25.2336 239.493C24.5042 239.202 15.7518 235.847 14.1472 239.493C14.1472 239.493 10.6462 246.058 11.6673 247.808C12.6884 249.559 17.5023 250.288 21.0033 247.808Z" fill="#DDD389"/>
<path d="M72.9321 237.894C70.8899 237.164 64.9091 235.414 63.3045 239.352C63.3045 239.352 64.9091 250.147 67.6807 249.418C70.4523 248.688 73.2238 247.084 72.9321 243.875C72.4945 240.665 74.9743 238.623 72.9321 237.894Z" fill="#DDD389"/>
<path d="M48.2785 238.775C47.9868 238.483 47.6951 238.337 47.2575 238.192C45.507 237.608 43.4647 237.17 41.5684 237.316C41.1307 237.316 40.6931 237.462 40.2555 237.608C37.0463 238.629 34.4206 241.692 35.5876 245.339C36.1711 247.09 37.6298 248.694 39.5261 249.132C41.8601 249.716 44.4858 248.694 46.2363 246.944C47.8409 245.048 48.5703 242.568 48.5703 240.088C48.5703 239.65 48.5703 239.213 48.2785 238.775Z" fill="#DDD389"/>
<path d="M101.816 247.808C105.317 245.328 106.63 239.785 106.046 239.493C105.317 239.202 96.5643 235.847 94.9597 239.493C94.9597 239.493 91.4587 246.058 92.4799 247.808C93.501 249.559 98.3148 250.288 101.816 247.808Z" fill="#DDD389"/>
<path d="M153.752 237.894C151.71 237.164 145.729 235.414 144.125 239.352C144.125 239.352 145.729 250.147 148.501 249.418C151.273 248.688 154.044 247.084 153.752 243.875C153.315 240.665 155.795 238.623 153.752 237.894Z" fill="#DDD389"/>
<path d="M129.091 238.775C128.799 238.483 128.508 238.337 128.07 238.192C126.319 237.608 124.277 237.17 122.381 237.316C121.943 237.316 121.506 237.462 121.068 237.608C117.859 238.629 115.233 241.692 116.4 245.339C116.984 247.09 118.442 248.694 120.339 249.132C122.673 249.716 125.298 248.694 127.049 246.944C128.653 245.048 129.383 242.568 129.383 240.088C129.383 239.65 129.383 239.213 129.091 238.775Z" fill="#DDD389"/>
<path d="M182.488 247.808C185.989 245.328 187.301 239.785 186.718 239.493C185.989 239.202 177.236 235.847 175.632 239.493C175.632 239.493 172.131 246.058 173.152 247.808C174.173 249.559 178.987 250.288 182.488 247.808Z" fill="#DDD389"/>
<path d="M234.415 237.894C232.372 237.164 226.392 235.414 224.787 239.352C224.787 239.352 226.392 250.147 229.163 249.418C231.935 248.688 234.706 247.084 234.415 243.875C233.977 240.665 236.603 238.623 234.415 237.894Z" fill="#DDD389"/>
<path d="M209.768 238.775C209.476 238.483 209.185 238.337 208.747 238.192C206.997 237.608 204.954 237.17 203.058 237.316C202.62 237.316 202.183 237.462 201.745 237.608C198.536 238.629 195.91 241.692 197.077 245.339C197.661 247.09 199.119 248.694 201.016 249.132C203.35 249.716 205.975 248.694 207.726 246.944C209.331 245.048 210.06 242.568 210.06 240.088C210.206 239.65 210.06 239.213 209.768 238.775Z" fill="#DDD389"/>
<path d="M263.285 247.808C266.785 245.328 268.098 239.785 267.515 239.493C266.785 239.202 258.033 235.847 256.428 239.493C256.428 239.493 252.927 246.058 253.949 247.808C254.97 249.559 259.784 250.288 263.285 247.808Z" fill="#DDD389"/>
<path d="M315.229 237.894C313.187 237.164 307.206 235.414 305.601 239.352C305.601 239.352 307.206 250.147 309.978 249.418C312.749 248.688 315.521 247.084 315.229 243.875C314.791 240.665 317.271 238.623 315.229 237.894Z" fill="#DDD389"/>
<path d="M290.583 238.775C290.292 238.483 290 238.337 289.562 238.192C287.812 237.608 285.769 237.17 283.873 237.316C283.435 237.316 282.998 237.462 282.56 237.608C279.351 238.629 276.725 241.692 277.892 245.339C278.476 247.09 279.934 248.694 281.831 249.132C284.165 249.716 286.791 248.694 288.541 246.944C290.146 245.048 290.875 242.568 290.875 240.088C290.875 239.65 290.875 239.213 290.583 238.775Z" fill="#DDD389"/>
<path d="M3.05793 257.73C1.0157 257 -4.96512 255.25 -6.56973 259.188C-6.56973 259.188 -4.96512 269.983 -2.19353 269.254C0.57807 268.524 3.34968 266.92 3.05793 263.711C2.76618 260.501 5.24603 258.313 3.05793 257.73Z" fill="#DDD389"/>
<path d="M22.6126 267.504C23.6337 269.254 28.4476 269.983 31.9486 267.504C35.4495 265.024 36.7624 259.481 36.1789 259.189C35.4495 258.897 26.6971 255.542 25.0925 259.189C24.9466 259.189 21.5915 265.753 22.6126 267.504Z" fill="#DDD389"/>
<path d="M83.8696 257.73C81.8274 257 75.8466 255.25 74.242 259.188C74.242 259.188 75.8466 269.983 78.6182 269.254C81.3898 268.524 84.1613 266.92 83.8696 263.711C83.432 260.501 85.9118 258.313 83.8696 257.73Z" fill="#DDD389"/>
<path d="M58.2028 258.02C56.4523 257.436 54.41 256.999 52.5137 257.144C52.0761 257.144 51.6384 257.29 51.2008 257.436C47.9916 258.457 45.3659 261.521 46.5329 265.167C47.1164 266.918 48.5751 268.523 50.4715 268.96C52.8054 269.544 55.4312 268.523 57.1816 266.772C58.7862 264.876 59.5156 262.396 59.5156 259.916C59.5156 259.478 59.5156 258.895 59.2239 258.603C58.9321 258.311 58.6404 258.166 58.2028 258.02Z" fill="#DDD389"/>
<path d="M103.269 267.504C104.29 269.254 109.104 269.983 112.605 267.504C116.106 265.024 117.419 259.481 116.835 259.189C116.106 258.897 107.353 255.542 105.749 259.189C105.749 259.189 102.248 265.753 103.269 267.504Z" fill="#DDD389"/>
<path d="M164.542 257.73C162.5 257 156.519 255.25 154.915 259.188C154.915 259.188 156.519 269.983 159.291 269.254C162.062 268.524 164.834 266.92 164.542 263.711C164.251 260.501 166.73 258.313 164.542 257.73Z" fill="#DDD389"/>
<path d="M139.015 258.02C137.265 257.436 135.223 256.999 133.326 257.144C132.889 257.144 132.451 257.29 132.013 257.436C128.804 258.457 126.178 261.521 127.345 265.167C127.929 266.918 129.388 268.523 131.284 268.96C133.618 269.544 136.244 268.523 137.994 266.772C139.599 264.876 140.328 262.396 140.328 259.916C140.328 259.478 140.328 258.895 140.036 258.603C139.745 258.311 139.307 258.166 139.015 258.02Z" fill="#DDD389"/>
<path d="M184.081 267.504C185.103 269.254 189.916 269.983 193.417 267.504C196.918 265.024 198.231 259.481 197.648 259.189C196.918 258.897 188.166 255.542 186.561 259.189C186.415 259.189 183.06 265.753 184.081 267.504Z" fill="#DDD389"/>
<path d="M245.362 257.73C243.32 257 237.339 255.25 235.734 259.188C235.734 259.188 237.339 269.983 240.11 269.254C242.882 268.524 245.654 266.92 245.362 263.711C244.924 260.501 247.404 258.313 245.362 257.73Z" fill="#DDD389"/>
<path d="M219.82 258.02C218.069 257.436 216.027 256.999 214.131 257.144C213.693 257.144 213.256 257.29 212.818 257.436C209.609 258.457 206.983 261.521 208.15 265.167C208.734 266.918 210.192 268.523 212.089 268.96C214.423 269.544 217.048 268.523 218.799 266.772C220.403 264.876 221.133 262.396 221.133 259.916C221.133 259.478 221.133 258.895 220.841 258.603C220.549 258.311 220.112 258.166 219.82 258.02Z" fill="#DDD389"/>
<path d="M264.761 267.504C265.782 269.254 270.596 269.983 274.097 267.504C277.598 265.024 278.911 259.481 278.327 259.189C277.598 258.897 268.846 255.542 267.241 259.189C267.241 259.189 263.74 265.753 264.761 267.504Z" fill="#DDD389"/>
<path d="M300.5 258.02C298.749 257.436 296.707 256.999 294.811 257.144C294.373 257.144 293.935 257.29 293.498 257.436C290.288 258.457 287.663 261.521 288.83 265.167C289.413 266.918 290.872 268.523 292.768 268.96C295.102 269.544 297.728 268.523 299.479 266.772C301.083 264.876 301.813 262.396 301.813 259.916C301.813 259.478 301.813 258.895 301.521 258.603C301.229 258.311 300.937 258.166 300.5 258.02Z" fill="#DDD389"/>
<path d="M21.0033 288.218C24.5042 285.739 25.8171 280.195 25.2336 279.904C24.5042 279.612 15.7518 276.257 14.1472 279.904C14.1472 279.904 10.6462 286.468 11.6673 288.218C12.6884 289.969 17.5023 290.552 21.0033 288.218Z" fill="#DDD389"/>
<path d="M72.9321 278.3C70.8899 277.571 64.9091 275.82 63.3045 279.759C63.3045 279.759 64.9091 290.553 67.6807 289.824C70.4523 289.095 73.2238 287.49 72.9321 284.281C72.4945 281.072 74.9743 279.029 72.9321 278.3Z" fill="#DDD389"/>
<path d="M48.2785 279.173C47.9868 278.882 47.6951 278.736 47.2575 278.59C45.507 278.006 43.4647 277.569 41.5684 277.715C41.1307 277.715 40.6931 277.861 40.2555 278.006C37.0463 279.028 34.4206 282.091 35.5876 285.738C36.1711 287.488 37.6298 289.093 39.5261 289.53C41.8601 290.114 44.4858 289.093 46.2363 287.342C47.8409 285.446 48.5703 282.966 48.5703 280.486C48.5703 280.049 48.5703 279.611 48.2785 279.173Z" fill="#DDD389"/>
<path d="M101.816 288.218C105.317 285.739 106.63 280.195 106.046 279.904C105.317 279.612 96.5643 276.257 94.9597 279.904C94.9597 279.904 91.4587 286.468 92.4799 288.218C93.501 289.969 98.3148 290.552 101.816 288.218Z" fill="#DDD389"/>
<path d="M153.752 278.3C151.71 277.571 145.729 275.82 144.125 279.759C144.125 279.759 145.729 290.553 148.501 289.824C151.273 289.095 154.044 287.49 153.752 284.281C153.315 281.072 155.795 279.029 153.752 278.3Z" fill="#DDD389"/>
<path d="M129.091 279.173C128.799 278.882 128.508 278.736 128.07 278.59C126.319 278.006 124.277 277.569 122.381 277.715C121.943 277.715 121.506 277.861 121.068 278.006C117.859 279.028 115.233 282.091 116.4 285.738C116.984 287.488 118.442 289.093 120.339 289.53C122.673 290.114 125.298 289.093 127.049 287.342C128.653 285.446 129.383 282.966 129.383 280.486C129.383 280.049 129.383 279.611 129.091 279.173Z" fill="#DDD389"/>
<path d="M182.488 288.218C185.989 285.739 187.301 280.195 186.718 279.904C186.134 279.612 177.236 276.257 175.632 279.904C175.632 279.904 172.131 286.468 173.152 288.218C174.173 289.969 178.987 290.552 182.488 288.218Z" fill="#DDD389"/>
<path d="M234.415 278.3C232.372 277.571 226.392 275.82 224.787 279.759C224.787 279.759 226.392 290.553 229.163 289.824C231.935 289.095 234.706 287.49 234.415 284.281C233.977 281.072 236.603 279.029 234.415 278.3Z" fill="#DDD389"/>
<path d="M209.768 279.173C209.476 278.882 209.185 278.736 208.747 278.59C206.997 278.006 204.954 277.569 203.058 277.715C202.62 277.715 202.183 277.861 201.745 278.006C198.536 279.028 195.91 282.091 197.077 285.738C197.661 287.488 199.119 289.093 201.016 289.53C203.35 290.114 205.975 289.093 207.726 287.342C209.331 285.446 210.06 282.966 210.06 280.486C210.206 280.049 210.06 279.611 209.768 279.173Z" fill="#DDD389"/>
<path d="M263.285 288.218C266.785 285.739 268.098 280.195 267.515 279.904C266.785 279.612 258.033 276.257 256.428 279.904C256.428 279.904 252.927 286.468 253.949 288.218C254.97 289.969 259.784 290.552 263.285 288.218Z" fill="#DDD389"/>
<path d="M315.229 278.3C313.187 277.571 307.206 275.82 305.601 279.759C305.601 279.759 307.206 290.553 309.978 289.824C312.749 289.095 315.521 287.49 315.229 284.281C314.791 281.072 317.271 279.029 315.229 278.3Z" fill="#DDD389"/>
<path d="M290.583 279.173C290.292 278.882 290 278.736 289.562 278.59C287.812 278.006 285.769 277.569 283.873 277.715C283.435 277.715 282.998 277.861 282.56 278.006C279.351 279.028 276.725 282.091 277.892 285.738C278.476 287.488 279.934 289.093 281.831 289.53C284.165 290.114 286.791 289.093 288.541 287.342C290.146 285.446 290.875 282.966 290.875 280.486C290.875 280.049 290.875 279.611 290.583 279.173Z" fill="#DDD389"/>
<path d="M3.05793 297.988C1.0157 297.258 -4.96512 295.508 -6.56973 299.446C-6.56973 299.446 -4.96512 310.241 -2.19353 309.512C0.57807 308.782 3.34968 307.178 3.05793 303.968C2.76618 300.759 5.24603 298.717 3.05793 297.988Z" fill="#DDD389"/>
<path d="M22.6126 307.91C23.6337 309.66 28.4476 310.39 31.9486 307.91C35.4495 305.43 36.7624 299.887 36.1789 299.595C35.4495 299.303 26.6971 295.948 25.0925 299.595C24.9466 299.595 21.5915 306.159 22.6126 307.91Z" fill="#DDD389"/>
<path d="M83.8696 297.988C81.8274 297.258 75.8466 295.508 74.242 299.446C74.242 299.446 75.8466 310.241 78.6182 309.512C81.3898 308.782 84.1613 307.178 83.8696 303.968C83.432 300.759 85.9118 298.717 83.8696 297.988Z" fill="#DDD389"/>
<path d="M58.2028 298.434C56.4523 297.85 54.41 297.413 52.5137 297.558C52.0761 297.558 51.6384 297.704 51.2008 297.85C47.9916 298.871 45.3659 301.935 46.5329 305.582C47.1164 307.332 48.5751 308.937 50.4715 309.374C52.8054 309.958 55.4312 308.937 57.1816 307.186C58.7862 305.29 59.5156 302.81 59.5156 300.33C59.5156 299.892 59.5156 299.309 59.2239 299.017C58.9321 298.725 58.6404 298.58 58.2028 298.434Z" fill="#DDD389"/>
<path d="M103.269 307.91C104.29 309.66 109.104 310.39 112.605 307.91C116.106 305.43 117.419 299.887 116.835 299.595C116.106 299.303 107.353 295.948 105.749 299.595C105.749 299.595 102.248 306.159 103.269 307.91Z" fill="#DDD389"/>
<path d="M164.542 297.988C162.5 297.258 156.519 295.508 154.915 299.446C154.915 299.446 156.519 310.241 159.291 309.512C162.062 308.782 164.834 307.178 164.542 303.968C164.251 300.759 166.73 298.717 164.542 297.988Z" fill="#DDD389"/>
<path d="M139.015 298.434C137.265 297.85 135.223 297.413 133.326 297.558C132.889 297.558 132.451 297.704 132.013 297.85C128.804 298.871 126.178 301.935 127.345 305.582C127.929 307.332 129.388 308.937 131.284 309.374C133.618 309.958 136.244 308.937 137.994 307.186C139.599 305.29 140.328 302.81 140.328 300.33C140.328 299.892 140.328 299.309 140.036 299.017C139.745 298.725 139.307 298.58 139.015 298.434Z" fill="#DDD389"/>
<path d="M184.081 307.91C185.103 309.66 189.916 310.39 193.417 307.91C196.918 305.43 198.231 299.887 197.648 299.595C196.918 299.303 188.166 295.948 186.561 299.595C186.415 299.595 183.06 306.159 184.081 307.91Z" fill="#DDD389"/>
<path d="M245.362 297.988C243.32 297.258 237.339 295.508 235.734 299.446C235.734 299.446 237.339 310.241 240.11 309.512C242.882 308.782 245.654 307.178 245.362 303.968C244.924 300.759 247.404 298.717 245.362 297.988Z" fill="#DDD389"/>
<path d="M219.82 298.434C218.069 297.85 216.027 297.413 214.131 297.558C213.693 297.558 213.256 297.704 212.818 297.85C209.609 298.871 206.983 301.935 208.15 305.582C208.734 307.332 210.192 308.937 212.089 309.374C214.423 309.958 217.048 308.937 218.799 307.186C220.403 305.29 221.133 302.81 221.133 300.33C221.133 299.892 221.133 299.309 220.841 299.017C220.549 298.725 220.112 298.58 219.82 298.434Z" fill="#DDD389"/>
<path d="M264.761 307.91C265.782 309.66 270.596 310.39 274.097 307.91C277.598 305.43 278.911 299.887 278.327 299.595C277.598 299.303 268.846 295.948 267.241 299.595C267.241 299.595 263.74 306.159 264.761 307.91Z" fill="#DDD389"/>
<path d="M300.5 298.434C298.749 297.85 296.707 297.413 294.811 297.558C294.373 297.558 293.935 297.704 293.498 297.85C290.288 298.871 287.663 301.935 288.83 305.582C289.413 307.332 290.872 308.937 292.768 309.374C295.102 309.958 297.728 308.937 299.479 307.186C301.083 305.29 301.813 302.81 301.813 300.33C301.813 299.892 301.813 299.309 301.521 299.017C301.229 298.725 300.937 298.58 300.5 298.434Z" fill="#DDD389"/>
<path d="M21.0033 328.625C24.5042 326.145 25.8171 320.602 25.2336 320.31C24.5042 320.018 15.7518 316.663 14.1472 320.31C14.1472 320.31 10.6462 326.874 11.6673 328.625C12.6884 330.375 17.5023 330.959 21.0033 328.625Z" fill="#DDD389"/>
<path d="M72.9321 318.706C70.8899 317.977 64.9091 316.226 63.3045 320.165C63.3045 320.165 64.9091 330.96 67.6807 330.23C70.4523 329.501 73.2238 327.896 72.9321 324.687C72.4945 321.478 74.9743 319.436 72.9321 318.706Z" fill="#DDD389"/>
<path d="M48.2785 319.58C47.9868 319.288 47.6951 319.142 47.2575 318.996C45.507 318.413 43.4647 317.975 41.5684 318.121C41.1307 318.121 40.6931 318.267 40.2555 318.413C37.0463 319.434 34.4206 322.497 35.5876 326.144C36.1711 327.895 37.6298 329.499 39.5261 329.937C41.8601 330.52 44.4858 329.499 46.2363 327.749C47.8409 325.852 48.5703 323.372 48.5703 320.893C48.5703 320.455 48.5703 320.017 48.2785 319.58Z" fill="#DDD389"/>
<path d="M101.816 328.625C105.317 326.145 106.63 320.602 106.046 320.31C105.317 320.018 96.5643 316.663 94.9597 320.31C94.9597 320.31 91.4587 326.874 92.4799 328.625C93.501 330.375 98.3148 330.959 101.816 328.625Z" fill="#DDD389"/>
<path d="M153.752 318.706C151.71 317.977 145.729 316.226 144.125 320.165C144.125 320.165 145.729 330.96 148.501 330.23C151.273 329.501 154.044 327.896 153.752 324.687C153.315 321.478 155.795 319.436 153.752 318.706Z" fill="#DDD389"/>
<path d="M129.091 319.58C128.799 319.288 128.508 319.142 128.07 318.996C126.319 318.413 124.277 317.975 122.381 318.121C121.943 318.121 121.506 318.267 121.068 318.413C117.859 319.434 115.233 322.497 116.4 326.144C116.984 327.895 118.442 329.499 120.339 329.937C122.673 330.52 125.298 329.499 127.049 327.749C128.799 325.998 129.383 323.372 129.383 320.893C129.383 320.455 129.383 320.017 129.091 319.58Z" fill="#DDD389"/>
<path d="M182.488 328.625C185.989 326.145 187.301 320.602 186.718 320.31C186.134 320.018 177.236 316.663 175.632 320.31C175.632 320.31 172.131 326.874 173.152 328.625C174.173 330.375 178.987 330.959 182.488 328.625Z" fill="#DDD389"/>
<path d="M234.415 318.706C232.372 317.977 226.392 316.226 224.787 320.165C224.787 320.165 226.392 330.96 229.163 330.23C231.935 329.501 234.706 327.896 234.415 324.687C233.977 321.478 236.603 319.436 234.415 318.706Z" fill="#DDD389"/>
<path d="M209.768 319.58C209.476 319.288 209.185 319.142 208.747 318.996C206.997 318.413 204.954 317.975 203.058 318.121C202.62 318.121 202.183 318.267 201.745 318.413C198.536 319.434 195.91 322.497 197.077 326.144C197.661 327.895 199.119 329.499 201.016 329.937C203.35 330.52 205.975 329.499 207.726 327.749C209.331 325.852 210.06 323.372 210.06 320.893C210.206 320.455 210.06 320.017 209.768 319.58Z" fill="#DDD389"/>
<path d="M263.285 328.625C266.785 326.145 268.098 320.602 267.515 320.31C266.785 320.018 258.033 316.663 256.428 320.31C256.428 320.31 252.927 326.874 253.949 328.625C254.97 330.375 259.784 330.959 263.285 328.625Z" fill="#DDD389"/>
<path d="M315.229 318.706C313.187 317.977 307.206 316.226 305.601 320.165C305.601 320.165 307.206 330.96 309.978 330.23C312.749 329.501 315.521 327.896 315.229 324.687C314.791 321.478 317.271 319.436 315.229 318.706Z" fill="#DDD389"/>
<path d="M290.583 319.58C290.292 319.288 290 319.142 289.562 318.996C287.812 318.413 285.769 317.975 283.873 318.121C283.435 318.121 282.998 318.267 282.56 318.413C279.351 319.434 276.725 322.497 277.892 326.144C278.476 327.895 279.934 329.499 281.831 329.937C284.165 330.52 286.791 329.499 288.541 327.749C290.146 325.852 290.875 323.372 290.875 320.893C290.875 320.455 290.875 320.017 290.583 319.58Z" fill="#DDD389"/>
</g>
</g>
</svg>
